<svg version="1.1" xmlns="http://www.w3.org/2000/svg" xmlns:xlink="http://www.w3.org/1999/xlink" x="0px" y="0px"
	 viewBox="0 0 1000 1000" xml:space="preserve">
<style type="text/css">
	.st0{fill-rule:evenodd;clip-rule:evenodd;fill:#1A1A2E;}
	.st1{fill-rule:evenodd;clip-rule:evenodd;fill:#FFFFFF;}
</style>
<g>
	<path class="st0" d="M922.25,341.66c0-88.67,3.15-83.63-73.54-127.97l-137.63-79.22L573.86,55.05c-76.7-44.34-70.81-44.34-147.51,0
		l-137.42,79.43l-137,79.01c-76.91,44.34-74.17,39.29-74.17,127.97v316.87c0,88.67-3.15,83.84,73.54,128.18l137.63,79.22l137,79.22
		c76.91,44.34,70.81,44.34,147.72,0.21l137.42-79.43l137-79.22c77.12-44.34,74.17-39.29,74.17-127.75V341.66z M558.94,791.33
		c0,18.7-1.26,23.32-17.02,32.57c-42.24,24.37-41.81,24.16-90.14-3.78c-34.04-19.75-68.29-39.5-102.54-59.04
		c-33.2-19.33-66.4-38.45-99.6-57.57c-51.69-29.84-51.06-25.64-51.06-85.1V384.94c0-59.47-3.15-56.94,48.12-86.78
		c12.61-7.14,25.21-14.5,37.82-21.64c16.18-9.46,17.65,2.1,22.48,14.92v252.78c0,46.86,0.21,54,31.52,71.23
		c1.47,0.63,2.94,1.68,4.62,2.52c24.38,13.24,48.96,26.47,73.54,39.92c19.12,10.3,24.38,0,24.38-16.6v-75.65
		c0-18.49,13.66-16.18,24.37-10.09l76.91,44.76c11.98,6.93,16.6,17.23,16.6,32.36V791.33z M753.31,702.02
		c-12.61,7.14-25.22,14.29-37.82,21.64c-16.18,9.25-17.65-2.31-22.27-15.13V455.76c0-46.86-0.42-53.79-31.52-71.02
		c-1.68-0.84-3.15-1.68-4.83-2.52c-24.37-13.24-48.96-26.69-73.54-39.92c-19.12-10.3-24.37,0-24.37,16.39v75.85
		c0,18.28-13.66,16.18-24.38,10.09l-76.91-44.76c-11.98-6.93-16.6-17.44-16.6-32.36V208.86c0-18.91,1.26-23.32,17.02-32.57
		c42.24-24.58,41.81-24.16,90.14,3.78c34.25,19.54,68.29,39.29,102.54,59.04c33.2,19.12,66.4,38.24,99.6,57.57
		c51.69,29.63,51.06,25.64,51.06,85.1v233.24C801.42,674.7,804.58,672.18,753.31,702.02z"/>
	<path class="st1" d="M753.31,702.02c-12.61,7.14-25.22,14.29-37.82,21.64c-16.18,9.25-17.65-2.31-22.27-15.13V455.76
		c0-46.86-0.42-53.79-31.52-71.02c-1.68-0.84-3.15-1.68-4.83-2.52c-24.37-13.24-48.96-26.69-73.54-39.92
		c-19.12-10.3-24.37,0-24.37,16.39v75.85c0,18.28-13.66,16.18-24.38,10.09l-76.91-44.76c-11.98-6.93-16.6-17.44-16.6-32.36V208.86
		c0-18.91,1.26-23.32,17.02-32.57c42.24-24.58,41.81-24.16,90.14,3.78c34.25,19.54,68.29,39.29,102.54,59.04
		c33.2,19.12,66.4,38.24,99.6,57.57c51.69,29.63,51.06,25.64,51.06,85.1v233.24C801.42,674.7,804.58,672.18,753.31,702.02z"/>
	<path class="st1" d="M558.94,632.68v158.65c0,18.7-1.26,23.32-17.02,32.57c-42.24,24.37-41.81,24.16-90.14-3.78
		c-34.04-19.75-68.29-39.5-102.54-59.04c-33.2-19.33-66.4-38.45-99.6-57.57c-51.69-29.84-51.06-25.64-51.06-85.1V384.94
		c0-59.47-3.15-56.94,48.12-86.78c12.61-7.14,25.21-14.5,37.82-21.64c16.18-9.46,17.65,2.1,22.48,14.92v252.78
		c0,46.86,0.21,54,31.52,71.23c1.47,0.63,2.94,1.68,4.62,2.52c24.38,13.24,48.96,26.47,73.54,39.92c19.12,10.3,24.38,0,24.38-16.6
		v-75.65c0-18.49,13.66-16.18,24.37-10.09l76.91,44.76C554.32,607.26,558.94,617.55,558.94,632.68z"/>
</g>
</svg>
